<svg xmlns="http://www.w3.org/2000/svg" width="43" height="60" viewBox="0 0 43 60">
    <g fill="#5FAD8F" fill-rule="evenodd">
        <path d="M29.889 46.815c.148 0 .296 0 .444-.074.148 0 .297-.074.445-.074.148 0 .296-.074.444-.074.297-.074.593-.149.963-.223.074 0 .148-.074.222-.074h.519c.074 0 .148 0 .222.074.296.074.593.223.815.37L33 48c-1.333-.37-2.444.148-2.444.148-.519-.518-1.112-.963-1.704-1.26h.444c.297-.073.445-.073.593-.073z"/>
        <path d="M33 46.148h-.593c-.074 0-.148 0-.296.074-.296.074-.592.074-.963.148-.148 0-.296 0-.444.074 0-.074.074-.148.074-.148.074-.148.074-.222.148-.37v-.222-.223c0-.074-.074-.148-.074-.148l-.148-.148a.566.566 0 0 0-.37-.148c-.149 0-.223-.074-.371-.074h-.74L29 44.519l-.074-.223c0-.074-.074-.148-.074-.222l-.074-.222c0-.074 0-.148-.074-.222v-.445-.222c0-.074 0-.148.074-.222v-.148c0-.074 0-.074.074-.149 0-.074.074-.148.074-.222 0-.074.074-.148.148-.222.074-.074.074-.148.148-.222.074-.074.074-.148.148-.148.074-.074.149-.074.149-.149h3.777l1.482 1.63c-.815-.592-1.778.445-1.778.445.889-.445 1.481-.445 1.778-.37-.667 1.555 0 2.666 0 2.666l-.667.815a1.766 1.766 0 0 0-.815-.445c-.148 0-.222 0-.296-.074zm-2.815-2.74s.593-.445 2 .296c0 0-1.11-1.26-2-.297z"/>
        <path d="M15.074 29.26c1.63 1.555 4.815 2.37 4.815 2.37 2 .889 2.592-1.63 2.592-1.63h3.778c.519.963 4.593 3.037 4.593 3.037 1.26.815 1.111 3.111 1.111 3.111-.963 1.482-.593 2.74-.593 2.74l2.074 2.371c-.148 0-.296-.074-.444-.074-.148 0-.296-.074-.444-.074l-.445-.074-.444-.074c-.297-.074-.593-.074-.963-.074-.297 0-.593 0-.963-.074h-.148l-.149.074c-.074 0-.074.074-.074.074s-.074 0-.074.074c-.074 0-.074.074-.148.074l-.222.222c-.074.074-.148.148-.148.223-.074.074-.148.148-.148.296-.074.074-.074.222-.149.296 0 .074-.074.074-.074.148l-.074.148c0 .075-.074.223-.074.297v.889c0 .074 0 .222.074.296 0 .074.074.148.074.296 0 .074.074.148.074.297l.075.222c.074.148.148.296.222.518l.148.297.296-.075H30.185c.074 0 .222 0 .296.075.075 0 .075 0 .075.074l.074.074s.074.074.074.148V46c0 .074 0 .222-.074.37l-.074.149v.074c-.149 0-.297 0-.445.074-.148 0-.296.074-.444.074-.148 0-.297.074-.445.074-.222.074-.444.074-.74.148-.815-.37-1.482-.593-1.482-.593-5.26 1.704-7.852-2.444-7.852-2.444l-1.778-4.889 1.26 5.037c1.481 2.445 5.555 3.26 5.555 3.26 1.482-.371 3.556 0 3.556 0-.963 3.555 2.74 8.222 2.74 8.222l-6.296 3.925-11.333-8C14.926 49.704 17.074 36 17.074 36c0-.963-2.37-1.63-2.37-1.63-4.445-.148-8.89-2.74-8.89-2.74-3.11-2.37-2.592-6.074-2.592-6.074 5.704-.89 9.556 1.555 11.852 3.703zm6.074 8.073s1.26-.518 2.519-.148l2.148 1.926L24.037 36s-.222.593-.889 0c0 0-1.185-1.852-3.111-1.26 0 .075-1.481 1.112 1.111 2.593zm-6.074-4.37s-1.852-7.482-11.185-6.815c0 0-.667 7.778 11.185 6.815zM36.63 26.074h5.185s-7.778 1.407-11.037 6c0 0-1.778-.444-2.222-1.26-.075 0 2.222-3.407 8.074-4.74z"/>
        <path d="M31.074 32.593s2.963-4.223 10.74-5.926c0 0-3.184 6.296-9.629 7.333 0 0-.074-.74-1.11-1.407zM26.481 29.556c2.37-6.519.297-10.963.297-10.963 4.296 2.888 1.259 12.222 1.259 12.222-1.333-.222-1.556-1.26-1.556-1.26z"/>
        <path d="M34.926 24.296s-5.26 3.482-6.074 5.26c0 0 .518-2.223.815-3.778 0 0 4.222-2.815 4.37-4.297 0 0 .37-3.851-.518-5.407 0 0-3.482-3.778-3.482-5.037 0 0 3.185 3.407 4.444 3.926 0 0-.666-9.852-2.962-14.963 0 0 2.518 2.889 3.703 9.333 0 0 1.111-3.185 1.482-5.259 0 0 .666 2.593-.89 7.037 0 0-.295 8.815-.073 9.482 0 0 .592.814 3.555-3.556L37.444 8.37s1.778 4.223 2.741 6.815c0 0 2.074-2.148 1.63-11.333-.074 0 4.148 10.74-6.89 20.444zM20.704 31.481s-5.334-8.222-1.926-12.148c0 0-.89 4.89 3.11 10.519 0 0 .075 1.037-1.184 1.63z"/>
        <path d="M12.556 23.926c.592 1.407 5.333 3.037 5.333 3.037.667 1.481 1.778 3.481 1.778 3.481-1.26-1.481-7.26-3.555-7.26-3.555C-.778 20.37.556 8.889.556 8.889c1.925 8.963 4.518 10.518 4.518 10.518.222-2.814.889-7.333.889-7.333l.444 8.815c4 3.481 4.37 2.518 4.37 2.518.075-.74-2.518-9.185-2.518-9.185C5.593 10.296 5.593 7.63 5.593 7.63c.888 1.851 2.74 4.666 2.74 4.666C7.815 5.778 9.52 2.37 9.52 2.37c-.89 5.556.962 15.26.962 15.26 1.038-.89 3.26-4.963 3.26-4.963.296 1.259-2.074 5.777-2.074 5.777-.445 1.852.889 5.482.889 5.482z"/>
    </g>
</svg>
