<?xml version="1.0" encoding="UTF-8"?>
<svg width="58px" height="81px" viewBox="0 0 58 81" version="1.1" xmlns="http://www.w3.org/2000/svg" xmlns:xlink="http://www.w3.org/1999/xlink">
    <!-- Generator: Sketch 51.1 (57501) - http://www.bohemiancoding.com/sketch -->
    <title>noun_buck_262569</title>
    <desc>Created with Sketch.</desc>
    <defs></defs>
    <g id="Page-1" stroke="none" stroke-width="1" fill="none" fill-rule="evenodd">
        <g id="noun_buck_262569" fill="#000000" fill-rule="nonzero">
            <path d="M17.7,63.2 C17.5,63.2 17.3,63.2 17.1,63.1 C16.9,63.1 16.7,63 16.5,63 C16.3,63 16.1,62.9 15.9,62.9 C15.5,62.8 15.1,62.7 14.6,62.6 C14.5,62.6 14.4,62.5 14.3,62.5 C14.2,62.5 14.1,62.5 14,62.5 C13.9,62.5 13.9,62.5 13.8,62.5 C13.7,62.5 13.7,62.5 13.6,62.5 C13.5,62.5 13.4,62.5 13.3,62.6 C12.9,62.7 12.5,62.9 12.2,63.1 L13.5,64.8 C15.3,64.3 16.8,65 16.8,65 C17.5,64.3 18.3,63.7 19.1,63.3 C18.9,63.3 18.7,63.3 18.5,63.3 C18.1,63.2 17.9,63.2 17.7,63.2 Z" id="Shape"></path>
            <path d="M13.5,62.3 C13.6,62.3 13.6,62.3 13.7,62.3 C13.8,62.3 13.8,62.3 13.9,62.3 C14,62.3 14.1,62.3 14.3,62.3 C14.4,62.3 14.5,62.3 14.7,62.4 C15.1,62.5 15.5,62.5 16,62.6 C16.2,62.6 16.4,62.6 16.6,62.7 C16.6,62.6 16.5,62.5 16.5,62.5 C16.4,62.3 16.4,62.2 16.3,62 C16.3,61.9 16.3,61.8 16.3,61.7 C16.3,61.6 16.3,61.5 16.3,61.4 C16.3,61.3 16.4,61.2 16.4,61.2 C16.5,61.1 16.5,61.1 16.6,61 C16.7,60.9 16.9,60.8 17.1,60.8 C17.3,60.8 17.4,60.7 17.6,60.7 C17.9,60.7 18.3,60.7 18.6,60.7 L18.9,60.1 L19,59.8 C19,59.7 19.1,59.6 19.1,59.5 L19.2,59.2 C19.2,59.1 19.2,59 19.3,58.9 C19.3,58.8 19.3,58.7 19.3,58.6 L19.3,58.3 C19.3,58.2 19.3,58.1 19.3,58 C19.3,57.9 19.3,57.8 19.2,57.7 L19.2,57.5 C19.2,57.4 19.2,57.4 19.1,57.3 C19.1,57.2 19,57.1 19,57 C19,56.9 18.9,56.8 18.8,56.7 C18.7,56.6 18.7,56.5 18.6,56.4 C18.5,56.3 18.5,56.2 18.4,56.2 C18.3,56.1 18.2,56.1 18.2,56 L13.1,56 L11.1,58.2 C12.2,57.4 13.5,58.8 13.5,58.8 C12.3,58.2 11.5,58.2 11.1,58.3 C12,60.4 11.1,61.9 11.1,61.9 L12,63 C12.3,62.7 12.7,62.5 13.1,62.4 C13.3,62.4 13.4,62.4 13.5,62.3 Z M17.3,58.6 C17.3,58.6 16.5,58 14.6,59 C14.6,59 16.1,57.3 17.3,58.6 Z" id="Shape"></path>
            <path d="M37.7,39.5 C35.5,41.6 31.2,42.7 31.2,42.7 C28.5,43.9 27.7,40.5 27.7,40.5 L22.6,40.5 C21.9,41.8 16.4,44.6 16.4,44.6 C14.7,45.7 14.9,48.8 14.9,48.8 C16.2,50.8 15.7,52.5 15.7,52.5 L12.9,55.7 C13.1,55.7 13.3,55.6 13.5,55.6 C13.7,55.6 13.9,55.5 14.1,55.5 L14.7,55.4 L15.3,55.3 C15.7,55.2 16.1,55.2 16.6,55.2 C17,55.2 17.4,55.2 17.9,55.1 L18.1,55.1 L18.3,55.2 C18.4,55.2 18.4,55.3 18.4,55.3 C18.4,55.3 18.5,55.3 18.5,55.4 C18.6,55.4 18.6,55.5 18.7,55.5 C18.8,55.6 18.9,55.7 19,55.8 C19.1,55.9 19.2,56 19.2,56.1 C19.3,56.2 19.4,56.3 19.4,56.5 C19.5,56.6 19.5,56.8 19.6,56.9 C19.6,57 19.7,57 19.7,57.1 L19.8,57.3 C19.8,57.4 19.9,57.6 19.9,57.7 C19.9,57.8 19.9,58 19.9,58.1 L19.9,58.5 C19.9,58.6 19.9,58.8 19.9,58.9 C19.9,59 19.9,59.2 19.8,59.3 C19.8,59.4 19.7,59.5 19.7,59.7 C19.7,59.8 19.6,59.9 19.6,60.1 L19.5,60.4 C19.4,60.6 19.3,60.8 19.2,61.1 L19,61.5 L18.6,61.4 C18.5,61.4 18.5,61.4 18.4,61.4 C18.3,61.4 18.2,61.4 18.2,61.4 C18,61.4 17.9,61.4 17.7,61.4 C17.6,61.4 17.4,61.4 17.3,61.4 C17.2,61.4 17,61.4 16.9,61.5 C16.8,61.5 16.8,61.5 16.8,61.6 C16.8,61.6 16.7,61.7 16.7,61.7 C16.7,61.7 16.6,61.8 16.6,61.9 C16.6,62 16.6,62 16.6,62.1 C16.6,62.2 16.6,62.4 16.7,62.6 L16.8,62.8 L16.8,62.9 C17,62.9 17.2,62.9 17.4,63 C17.6,63 17.8,63.1 18,63.1 C18.2,63.1 18.4,63.2 18.6,63.2 C18.9,63.3 19.2,63.3 19.6,63.4 C20.7,62.9 21.6,62.6 21.6,62.6 C28.7,64.9 32.2,59.3 32.2,59.3 L34.6,52.7 L32.9,59.5 C30.9,62.8 25.4,63.9 25.4,63.9 C23.4,63.4 20.6,63.9 20.6,63.9 C21.9,68.7 16.9,75 16.9,75 L25.4,80.3 L40.7,69.5 C37.9,67.1 35,48.6 35,48.6 C35,47.3 38.2,46.4 38.2,46.4 C44.2,46.2 50.2,42.7 50.2,42.7 C54.4,39.5 53.7,34.5 53.7,34.5 C46,33.3 40.8,36.6 37.7,39.5 Z M29.5,50.4 C29.5,50.4 27.8,49.7 26.1,50.2 L23.2,52.8 L25.6,48.6 C25.6,48.6 25.9,49.4 26.8,48.6 C26.8,48.6 28.4,46.1 31,46.9 C31,47 33,48.4 29.5,50.4 Z M37.7,44.5 C37.7,44.5 40.2,34.4 52.8,35.3 C52.8,35.3 53.7,45.8 37.7,44.5 Z" id="Shape"></path>
            <path d="M8.6,35.2 L1.6,35.2 C1.6,35.2 12.1,37.1 16.5,43.3 C16.5,43.3 18.9,42.7 19.5,41.6 C19.6,41.6 16.5,37 8.6,35.2 Z" id="Shape"></path>
            <path d="M16.1,44 C16.1,44 12.1,38.3 1.6,36 C1.6,36 5.9,44.5 14.6,45.9 C14.6,45.9 14.7,44.9 16.1,44 Z" id="Shape"></path>
            <path d="M22.3,39.9 C19.1,31.1 21.9,25.1 21.9,25.1 C16.1,29 20.2,41.6 20.2,41.6 C22,41.3 22.3,39.9 22.3,39.9 Z" id="Shape"></path>
            <path d="M10.9,32.8 C10.9,32.8 18,37.5 19.1,39.9 C19.1,39.9 18.4,36.9 18,34.8 C18,34.8 12.3,31 12.1,29 C12.1,29 11.6,23.8 12.8,21.7 C12.8,21.7 17.5,16.6 17.5,14.9 C17.5,14.9 13.2,19.5 11.5,20.2 C11.5,20.2 12.4,6.9 15.5,0 C15.5,0 12.1,3.9 10.5,12.6 C10.5,12.6 9,8.3 8.5,5.5 C8.5,5.5 7.6,9 9.7,15 C9.7,15 10.1,26.9 9.8,27.8 C9.8,27.8 9,28.9 5,23 L7.5,11.3 C7.5,11.3 5.1,17 3.8,20.5 C3.8,20.5 1,17.6 1.6,5.2 C1.7,5.2 -4,19.7 10.9,32.8 Z" id="Shape"></path>
            <path d="M30.1,42.5 C30.1,42.5 37.3,31.4 32.7,26.1 C32.7,26.1 33.9,32.7 28.5,40.3 C28.5,40.3 28.4,41.7 30.1,42.5 Z" id="Shape"></path>
            <path d="M41.1,32.3 C40.3,34.2 33.9,36.4 33.9,36.4 C33,38.4 31.5,41.1 31.5,41.1 C33.2,39.1 41.3,36.3 41.3,36.3 C59.1,27.5 57.3,12 57.3,12 C54.7,24.1 51.2,26.2 51.2,26.2 C50.9,22.4 50,16.3 50,16.3 L49.4,28.2 C44,32.9 43.5,31.6 43.5,31.6 C43.4,30.6 46.9,19.2 46.9,19.2 C50.5,13.9 50.5,10.3 50.5,10.3 C49.3,12.8 46.8,16.6 46.8,16.6 C47.5,7.8 45.2,3.2 45.2,3.2 C46.4,10.7 43.9,23.8 43.9,23.8 C42.5,22.6 39.5,17.1 39.5,17.1 C39.1,18.8 42.3,24.9 42.3,24.9 C42.9,27.4 41.1,32.3 41.1,32.3 Z" id="Shape"></path>
        </g>
    </g>
</svg>